<?xml version="1.0" encoding="UTF-8"?>
<svg xmlns="http://www.w3.org/2000/svg" xmlns:xlink="http://www.w3.org/1999/xlink" width="22pt" height="22pt" viewBox="0 0 22 22" version="1.1">
<g id="surface12">
<path style=" stroke:none;fill-rule:evenodd;fill:rgb(13.7%,14.9%,16.1%);fill-opacity:1;" d="M 7.011719 3 C 6.433594 4 6.132812 4 6.710938 5 L 10.253906 11.140625 L 8.195312 14.667969 C 7.75 14.257812 7.15625 14 6.5 14 C 5.113281 14 4 15.113281 4 16.5 C 4 17.886719 5.113281 19 6.5 19 C 7.886719 19 9 17.886719 9 16.5 C 9 16.332031 8.980469 16.167969 8.949219 16.011719 L 10.113281 13.996094 C 10.894531 13.996094 10.992188 13.222656 11.449219 13.214844 L 13.050781 15.992188 C 13.019531 16.15625 13 16.328125 13 16.5 C 13 17.886719 14.113281 19 15.5 19 C 16.886719 19 18 17.886719 18 16.5 C 18 15.113281 16.886719 14 15.5 14 C 14.847656 14 14.257812 14.253906 13.816406 14.660156 L 11.761719 11.140625 L 15.300781 5 C 15.878906 4 15.578125 4 15 3 L 11.007812 9.847656 L 7.011719 3 M 11 11 C 11.277344 11 11.5 11.222656 11.5 11.5 C 11.5 11.777344 11.277344 12 11 12 C 10.722656 12 10.5 11.777344 10.5 11.5 C 10.5 11.222656 10.722656 11 11 11 Z M 6.5 15 C 7.332031 15 8 15.667969 8 16.5 C 8 17.332031 7.332031 18 6.5 18 C 5.667969 18 5 17.332031 5 16.5 C 5 15.667969 5.667969 15 6.5 15 M 15.5 15 C 16.332031 15 17 15.667969 17 16.5 C 17 17.332031 16.332031 18 15.5 18 C 14.667969 18 14 17.332031 14 16.5 C 14 15.667969 14.667969 15 15.5 15 "/>
</g>
</svg>
