<?xml version="1.0" encoding="UTF-8"?>
<svg xmlns="http://www.w3.org/2000/svg" xmlns:xlink="http://www.w3.org/1999/xlink" width="22pt" height="22pt" viewBox="0 0 22 22" version="1.1">
<g id="surface27">
<path style=" stroke:none;fill-rule:evenodd;fill:rgb(85.5%,26.7%,32.5%);fill-opacity:1;" d="M 4 3 L 4 10 L 5 10 L 5 4 L 13 4 L 13 8 L 17 8 L 17 10 L 18 10 L 18 6.992188 L 14.007812 3 L 14 3.011719 L 14 3 Z M 4 3 "/>
<path style=" stroke:none;fill-rule:evenodd;fill:rgb(85.5%,26.7%,32.5%);fill-opacity:1;" d="M 3 11 L 19 11 L 19 12 L 3 12 Z M 3 11 "/>
<path style=" stroke:none;fill-rule:evenodd;fill:rgb(85.5%,26.7%,32.5%);fill-opacity:1;" d="M 4 13 L 5 13 L 5 19 L 4 19 Z M 4 13 "/>
<path style=" stroke:none;fill-rule:evenodd;fill:rgb(85.5%,26.7%,32.5%);fill-opacity:1;" d="M 6 13 L 7 13 L 7 19 L 6 19 Z M 6 13 "/>
<path style=" stroke:none;fill-rule:evenodd;fill:rgb(85.5%,26.7%,32.5%);fill-opacity:1;" d="M 8 13 L 9 13 L 9 19 L 8 19 Z M 8 13 "/>
<path style=" stroke:none;fill-rule:evenodd;fill:rgb(85.5%,26.7%,32.5%);fill-opacity:1;" d="M 10 13 L 11 13 L 11 19 L 10 19 Z M 10 13 "/>
<path style=" stroke:none;fill-rule:evenodd;fill:rgb(85.5%,26.7%,32.5%);fill-opacity:1;" d="M 12 13 L 13 13 L 13 19 L 12 19 Z M 12 13 "/>
<path style=" stroke:none;fill-rule:evenodd;fill:rgb(85.5%,26.7%,32.5%);fill-opacity:1;" d="M 14 13 L 15 13 L 15 19 L 14 19 Z M 14 13 "/>
<path style=" stroke:none;fill-rule:evenodd;fill:rgb(85.5%,26.7%,32.5%);fill-opacity:1;" d="M 16 13 L 17 13 L 17 19 L 16 19 Z M 16 13 "/>
</g>
</svg>
