<?xml version="1.0" encoding="UTF-8"?>
<svg xmlns="http://www.w3.org/2000/svg" xmlns:xlink="http://www.w3.org/1999/xlink" width="22pt" height="22pt" viewBox="0 0 22 22" version="1.1">
<g id="surface242">
<path style=" stroke:none;fill-rule:evenodd;fill:rgb(13.7%,14.9%,16.1%);fill-opacity:1;" d="M 2 6 L 2 15 L 5 19 L 5 15 L 20 15 L 20 6 Z M 3 7 L 19 7 L 19 14 L 3 14 Z M 3 7 "/>
<path style=" stroke:none;fill-rule:evenodd;fill:rgb(13.7%,14.9%,16.1%);fill-opacity:1;" d="M 4 8 L 4 9 L 5 9 L 5 8 Z M 6 8 L 6 9 L 7 9 L 7 8 Z M 8 8 L 8 9 L 9 9 L 9 8 Z M 10 8 L 10 9 L 11 9 L 11 8 Z M 12 8 L 12 9 L 13 9 L 13 8 Z M 14 8 L 14 9 L 15 9 L 15 8 Z M 16 8 L 16 9 L 18 9 L 18 8 Z M 4 10 L 4 11 L 6 11 L 6 10 Z M 7 10 L 7 11 L 8 11 L 8 10 Z M 9 10 L 9 11 L 10 11 L 10 10 Z M 11 10 L 11 11 L 12 11 L 12 10 Z M 13 10 L 13 11 L 14 11 L 14 10 Z M 15 10 L 15 11 L 18 11 L 18 10 Z M 4 12 L 4 13 L 6 13 L 6 12 Z M 7 12 L 7 13 L 15 13 L 15 12 Z M 16 12 L 16 13 L 18 13 L 18 12 Z M 16 12 "/>
</g>
</svg>
