<?xml version="1.0" encoding="UTF-8"?>
<svg xmlns="http://www.w3.org/2000/svg" xmlns:xlink="http://www.w3.org/1999/xlink" width="22pt" height="22pt" viewBox="0 0 22 22" version="1.1">
<g id="surface122">
<path style="fill:none;stroke-width:1;stroke-linecap:round;stroke-linejoin:round;stroke:rgb(13.7%,14.9%,16.1%);stroke-opacity:1;stroke-miterlimit:10;" d="M 11.0625 14.957031 L 13.9375 7.042969 " transform="matrix(1,0,0,-1,0,22)"/>
<path style="fill:none;stroke-width:1;stroke-linecap:round;stroke-linejoin:round;stroke:rgb(13.7%,14.9%,16.1%);stroke-opacity:1;stroke-miterlimit:10;" d="M 6.980469 8.84375 L 12.996094 6.167969 " transform="matrix(1,0,0,-1,0,22)"/>
<path style="fill:none;stroke-width:1;stroke-linecap:round;stroke-linejoin:round;stroke:rgb(13.7%,14.9%,16.1%);stroke-opacity:1;stroke-miterlimit:10;" d="M 6.503906 10.90625 L 9.496094 15.09375 " transform="matrix(1,0,0,-1,0,22)"/>
<path style=" stroke:none;fill-rule:evenodd;fill:rgb(11.4%,60%,95.3%);fill-opacity:1;" d="M 11.5 5.5 C 11.5 4.167969 9.5 4.167969 9.5 5.5 C 9.5 6.832031 11.5 6.832031 11.5 5.5 Z M 12.5 5.5 C 12.5 2.832031 8.5 2.832031 8.5 5.5 C 8.5 8.167969 12.5 8.167969 12.5 5.5 Z M 12.5 5.5 "/>
<path style=" stroke:none;fill-rule:evenodd;fill:rgb(11.4%,60%,95.3%);fill-opacity:1;" d="M 6.5 12.5 C 6.5 11.167969 4.5 11.167969 4.5 12.5 C 4.5 13.832031 6.5 13.832031 6.5 12.5 Z M 7.5 12.5 C 7.5 9.832031 3.5 9.832031 3.5 12.5 C 3.5 15.167969 7.5 15.167969 7.5 12.5 Z M 7.5 12.5 "/>
<path style=" stroke:none;fill-rule:evenodd;fill:rgb(11.4%,60%,95.3%);fill-opacity:1;" d="M 15.5 16.5 C 15.5 15.167969 13.5 15.167969 13.5 16.5 C 13.5 17.832031 15.5 17.832031 15.5 16.5 Z M 16.5 16.5 C 16.5 13.832031 12.5 13.832031 12.5 16.5 C 12.5 19.167969 16.5 19.167969 16.5 16.5 Z M 16.5 16.5 "/>
</g>
</svg>
