<?xml version="1.0" encoding="UTF-8"?>
<svg xmlns="http://www.w3.org/2000/svg" xmlns:xlink="http://www.w3.org/1999/xlink" width="22pt" height="22pt" viewBox="0 0 22 22" version="1.1">
<g id="surface42">
<path style=" stroke:none;fill-rule:evenodd;fill:rgb(13.7%,14.9%,16.1%);fill-opacity:1;" d="M 17.5 10 L 15 7 L 20 7 Z M 17.5 10 "/>
<path style=" stroke:none;fill-rule:evenodd;fill:rgb(13.7%,14.9%,16.1%);fill-opacity:1;" d="M 14 3 C 16.210938 3 18 4.789062 18 7 L 17 7 C 17 5.34375 15.65625 4 14 4 Z M 14 3 "/>
<path style=" stroke:none;fill-rule:evenodd;fill:rgb(13.7%,14.9%,16.1%);fill-opacity:1;" d="M 4.5 12 L 7 15 L 2 15 Z M 4.5 12 "/>
<path style=" stroke:none;fill-rule:evenodd;fill:rgb(13.7%,14.9%,16.1%);fill-opacity:1;" d="M 8 19 C 5.789062 19 4 17.210938 4 15 L 5 15 C 5 16.65625 6.34375 18 8 18 Z M 8 19 "/>
<path style=" stroke:none;fill-rule:evenodd;fill:rgb(13.7%,14.9%,16.1%);fill-opacity:1;" d="M 10.6875 10 L 4 10 L 4 4 L 11 4 L 11 9.6875 Z M 8.929688 13.171875 L 13.171875 8.929688 L 18.121094 13.878906 L 13.878906 18.121094 Z M 3 11 L 3 3 L 12 3 L 12 8.6875 L 13.171875 7.515625 L 19.535156 13.878906 L 13.878906 19.535156 L 7.515625 13.171875 L 9.6875 11 Z M 3 11 "/>
</g>
</svg>
