<?xml version="1.0" encoding="UTF-8"?>
<svg xmlns="http://www.w3.org/2000/svg" xmlns:xlink="http://www.w3.org/1999/xlink" width="22pt" height="22pt" viewBox="0 0 22 22" version="1.1">
<g id="surface62">
<path style=" stroke:none;fill-rule:evenodd;fill:rgb(13.7%,14.9%,16.1%);fill-opacity:1;" d="M 14.128906 3.003906 C 13.503906 3.042969 13.082031 3.433594 12.78125 3.914062 C 12.453125 2.726562 10.140625 2.652344 9.679688 4.335938 C 9.316406 3.945312 8.851562 3.671875 8.269531 3.714844 L 8.246094 3.714844 C 7.175781 3.808594 6.417969 4.75 6.601562 5.777344 L 7.515625 11.089844 C 7.167969 10.851562 6.75 10.445312 6.441406 10.3125 C 5.726562 10 5.074219 9.960938 4.550781 10.113281 C 3.496094 10.414062 3.179688 11.398438 3.179688 11.398438 L 3 11.910156 L 3.457031 12.222656 C 4.460938 12.882812 5.480469 14.484375 6.441406 15.976562 C 6.921875 16.722656 7.402344 17.425781 7.949219 17.996094 C 8.492188 18.566406 9.109375 19.003906 9.941406 19 L 9.957031 19 C 12.289062 19 14.621094 19 16.957031 19 L 17.136719 19 L 17.160156 18.332031 C 17.160156 18.332031 17.222656 17.089844 17.34375 15.621094 C 17.460938 14.152344 17.640625 12.4375 17.84375 11.644531 L 18.941406 7.355469 C 19.253906 6.179688 18.292969 5.046875 17.046875 5.136719 C 16.664062 5.15625 16.328125 5.320312 16.042969 5.535156 L 16.066406 4.890625 C 16.136719 3.816406 15.230469 2.933594 14.128906 3.003906 Z M 11.253906 3.710938 L 11.253906 3.714844 C 11.835938 3.679688 12.394531 4.167969 12.414062 4.734375 L 12.691406 9.644531 C 12.707031 9.921875 12.882812 9.917969 12.898438 9.667969 L 13.148438 4.734375 C 13.167969 4.214844 13.636719 3.746094 14.171875 3.710938 C 14.789062 3.671875 15.375 4.242188 15.335938 4.847656 L 15.0625 10.242188 C 15.054688 10.40625 15.101562 10.484375 15.152344 10.289062 L 16.089844 6.667969 C 16.195312 6.222656 16.625 5.871094 17.09375 5.84375 C 17.785156 5.796875 18.40625 6.527344 18.234375 7.179688 L 17.136719 11.464844 C 16.695312 13.1875 16.476562 17.484375 16.449219 17.996094 L 10 18 C 7.882812 17.980469 6.335938 13.246094 3.867188 11.621094 C 3.867188 11.621094 4.753906 9.066406 8.40625 12.621094 C 8.40625 12.621094 8.429688 12.503906 8.472656 12.332031 C 8.445312 12.246094 8.429688 12.15625 8.425781 12.066406 L 7.332031 5.667969 C 7.230469 5.089844 7.710938 4.476562 8.3125 4.421875 C 8.859375 4.386719 9.394531 4.808594 9.476562 5.335938 L 10.273438 10 C 10.304688 10.191406 10.539062 10.140625 10.523438 9.890625 L 10.226562 4.847656 C 10.191406 4.289062 10.679688 3.746094 11.253906 3.710938 Z M 11.253906 3.710938 "/>
</g>
</svg>
