<?xml version="1.0" encoding="UTF-8"?>
<svg xmlns="http://www.w3.org/2000/svg" xmlns:xlink="http://www.w3.org/1999/xlink" width="22pt" height="22pt" viewBox="0 0 22 22" version="1.1">
<g id="surface167">
<path style=" stroke:none;fill-rule:evenodd;fill:rgb(13.7%,14.9%,16.1%);fill-opacity:1;" d="M 12.003906 3 L 4.65625 10.3125 L 3.25 11.75 L 3 12 L 3 16 L 7 16 L 7.25 15.75 L 7.625 15.40625 L 8.3125 14.6875 L 8.6875 14.34375 L 15 8 L 16 7 Z M 11.40625 5 L 14 7.59375 L 9.71875 11.84375 L 7.15625 9.25 Z M 6.4375 9.96875 L 9.03125 12.5625 L 8.3125 13.28125 L 5.71875 10.6875 Z M 5.03125 11.375 L 7.625 13.96875 L 6.90625 14.6875 L 4.3125 12.09375 Z M 16.496094 14 C 16.238281 14 15.542969 14.046875 14.433594 14.5625 C 14.089844 14.722656 13.800781 14.90625 13.40625 15.125 C 13.195312 15.242188 12.4375 15.621094 12.15625 15.75 C 11.332031 16.132812 11.054688 16.230469 10.34375 16.5 C 9.652344 16.761719 8.910156 17 8.40625 17.1875 C 6.285156 17.980469 3 18 3 18 L 3 19 C 3 19 6.328125 19.03125 8.75 18.125 C 9.070312 18.003906 9.632812 17.808594 10.15625 17.625 C 10.964844 17.332031 11.835938 16.96875 12.5625 16.65625 C 12.867188 16.515625 13.574219 16.164062 13.871094 16 C 14.3125 15.757812 14.605469 15.578125 14.84375 15.46875 C 15.355469 15.167969 15.925781 14.988281 16.496094 15 C 16.453125 15 16.671875 15 16.871094 15.09375 C 17.074219 15.175781 17.296875 15.328125 17.46875 15.46875 C 17.792969 15.800781 17.929688 16.054688 17.996094 16.5 C 17.972656 17.183594 17.738281 17.394531 17.246094 17.78125 C 16.925781 17.996094 16.46875 18.035156 16 18.003906 L 16 18.972656 C 16.785156 18.976562 17.410156 18.816406 17.78125 18.625 C 18.617188 18.148438 19.027344 17.289062 18.996094 16.46875 C 18.992188 16.179688 18.921875 15.945312 18.78125 15.625 C 18.636719 15.304688 18.433594 14.949219 18.121094 14.6875 C 17.640625 14.265625 17.398438 14.078125 16.496094 14 Z M 16.496094 14 "/>
</g>
</svg>
