<?xml version="1.0" encoding="UTF-8"?>
<svg xmlns="http://www.w3.org/2000/svg" xmlns:xlink="http://www.w3.org/1999/xlink" width="22pt" height="22pt" viewBox="0 0 22 22" version="1.1">
<g id="surface47">
<path style=" stroke:none;fill-rule:evenodd;fill:rgb(13.7%,14.9%,16.1%);fill-opacity:1;" d="M 16 16 L 12 16 L 16 12 Z M 16 16 "/>
<path style=" stroke:none;fill-rule:evenodd;fill:rgb(13.7%,14.9%,16.1%);fill-opacity:1;" d="M 3 3 L 3 10 L 8 10 L 8 8 L 10 8 L 10 3 Z M 4 4 L 4 9 L 7 9 L 7 7 L 9 7 L 9 4 Z M 4 4 "/>
<path style=" stroke:none;fill-rule:evenodd;fill:rgb(13.7%,14.9%,16.1%);fill-opacity:1;" d="M 7 7 L 7 19 L 19 19 L 19 7 Z M 8 8 L 8 18 L 18 18 L 18 8 Z M 8 8 "/>
<path style=" stroke:none;fill-rule:evenodd;fill:rgb(13.7%,14.9%,16.1%);fill-opacity:1;" d="M 5.144531 5.855469 L 14.085938 14.792969 L 14.792969 14.085938 L 5.855469 5.144531 Z M 5.144531 5.855469 "/>
</g>
</svg>
