<?xml version="1.0" encoding="UTF-8"?>
<svg xmlns="http://www.w3.org/2000/svg" xmlns:xlink="http://www.w3.org/1999/xlink" width="22pt" height="22pt" viewBox="0 0 22 22" version="1.1">
<g id="surface82">
<path style=" stroke:none;fill-rule:evenodd;fill:rgb(13.7%,14.9%,16.1%);fill-opacity:1;" d="M 3 4 L 10 4 L 10 5 L 3 5 Z M 3 4 "/>
<path style=" stroke:none;fill-rule:evenodd;fill:rgb(13.7%,14.9%,16.1%);fill-opacity:1;" d="M 3 13 L 10 13 L 10 14 L 3 14 Z M 3 13 "/>
<path style=" stroke:none;fill-rule:evenodd;fill:rgb(13.7%,14.9%,16.1%);fill-opacity:1;" d="M 6 15 L 6 16 L 7 16 L 7 15 Z M 6 15 "/>
<path style=" stroke:none;fill-rule:evenodd;fill:rgb(13.7%,14.9%,16.1%);fill-opacity:1;" d="M 3 13 L 7 9 L 3 5 L 4.414062 5 L 8.414062 9 L 4.414062 13 Z M 3 13 "/>
<path style=" stroke:none;fill-rule:evenodd;fill:rgb(13.7%,14.9%,16.1%);fill-opacity:1;" d="M 6 17 L 6 19 L 7 19 L 7 17 Z M 6 17 "/>
<path style=" stroke:none;fill-rule:evenodd;fill:rgb(13.7%,14.9%,16.1%);fill-opacity:1;" d="M 15 8 L 15 15 L 16 15 L 16 8 Z M 15 8 "/>
<path style=" stroke:none;fill-rule:evenodd;fill:rgb(13.7%,14.9%,16.1%);fill-opacity:1;" d="M 11 11 C 11 13.394531 13.671875 14.824219 15.664062 13.496094 L 15.414062 12.414062 C 14.152344 13.675781 12 12.78125 12 11 L 12 8 L 11 8 Z M 11 11 "/>
<path style=" stroke:none;fill-rule:evenodd;fill:rgb(13.7%,14.9%,16.1%);fill-opacity:1;" d="M 18 13 L 18 14 L 19 14 L 19 13 Z M 18 13 "/>
<path style=" stroke:none;fill-rule:evenodd;fill:rgb(13.7%,14.9%,16.1%);fill-opacity:1;" d="M 18 15 L 18 17 L 19 17 L 19 15 Z M 18 15 "/>
<path style=" stroke:none;fill-rule:evenodd;fill:rgb(13.7%,14.9%,16.1%);fill-opacity:1;" d="M 16 15 C 16 17.472656 13.78125 19.351562 11.34375 18.945312 L 11.507812 17.960938 C 13.335938 18.265625 15 16.855469 15 15 Z M 16 15 "/>
</g>
</svg>
