<?xml version="1.0" encoding="UTF-8"?>
<svg xmlns="http://www.w3.org/2000/svg" xmlns:xlink="http://www.w3.org/1999/xlink" width="22pt" height="22pt" viewBox="0 0 22 22" version="1.1">
<g id="surface157">
<path style="fill:none;stroke-width:1;stroke-linecap:round;stroke-linejoin:round;stroke:rgb(13.7%,14.9%,16.1%);stroke-opacity:1;stroke-miterlimit:10;" d="M 5.050781 7.308594 C 3.351562 10.050781 3.746094 13.601562 6.003906 15.902344 C 8.261719 18.207031 11.804688 18.664062 14.574219 17.019531 " transform="matrix(1,0,0,-1,0,22)"/>
<path style="fill:none;stroke-width:1;stroke-linecap:round;stroke-linejoin:round;stroke:rgb(13.7%,14.9%,16.1%);stroke-opacity:1;stroke-miterlimit:10;" d="M 17.023438 14.566406 C 18.65625 11.808594 18.207031 8.292969 15.933594 6.035156 C 13.664062 3.777344 10.144531 3.347656 7.398438 4.996094 " transform="matrix(1,0,0,-1,0,22)"/>
<path style=" stroke:none;fill-rule:evenodd;fill:rgb(11.4%,60%,95.3%);fill-opacity:1;" d="M 7 16 C 7 14.667969 5 14.667969 5 16 C 5 17.332031 7 17.332031 7 16 Z M 8 16 C 8 13.332031 4 13.332031 4 16 C 4 18.667969 8 18.667969 8 16 Z M 8 16 "/>
<path style=" stroke:none;fill-rule:evenodd;fill:rgb(11.4%,60%,95.3%);fill-opacity:1;" d="M 17 6 C 17 4.667969 15 4.667969 15 6 C 15 7.332031 17 7.332031 17 6 Z M 18 6 C 18 3.332031 14 3.332031 14 6 C 14 8.667969 18 8.667969 18 6 Z M 18 6 "/>
</g>
</svg>
