<?xml version="1.0" encoding="UTF-8"?>
<svg xmlns="http://www.w3.org/2000/svg" xmlns:xlink="http://www.w3.org/1999/xlink" width="22pt" height="22pt" viewBox="0 0 22 22" version="1.1">
<g id="surface102">
<path style=" stroke:none;fill-rule:evenodd;fill:rgb(13.7%,14.9%,16.1%);fill-opacity:1;" d="M 4 4 L 17 4 L 17 15 L 16 15 L 16 5 L 4 5 Z M 4 4 "/>
<path style=" stroke:none;fill-rule:evenodd;fill:rgb(13.7%,14.9%,16.1%);fill-opacity:1;" d="M 4 4 L 5 4 L 5 16 L 15 16 L 15 17 L 4 17 Z M 4 4 "/>
<path style=" stroke:none;fill-rule:evenodd;fill:rgb(11.4%,60%,95.3%);fill-opacity:1;" d="M 11.5 10.5 C 11.5 9.167969 9.5 9.167969 9.5 10.5 C 9.5 11.832031 11.5 11.832031 11.5 10.5 Z M 12.5 10.5 C 12.5 7.832031 8.5 7.832031 8.5 10.5 C 8.5 13.167969 12.5 13.167969 12.5 10.5 Z M 12.5 10.5 "/>
<path style=" stroke:none;fill-rule:evenodd;fill:rgb(11.4%,60%,95.3%);fill-opacity:1;" d="M 17.5 16.5 C 17.5 15.167969 15.5 15.167969 15.5 16.5 C 15.5 17.832031 17.5 17.832031 17.5 16.5 Z M 18.5 16.5 C 18.5 13.832031 14.5 13.832031 14.5 16.5 C 14.5 19.167969 18.5 19.167969 18.5 16.5 Z M 18.5 16.5 "/>
</g>
</svg>
