<?xml version="1.0" encoding="UTF-8"?>
<svg xmlns="http://www.w3.org/2000/svg" xmlns:xlink="http://www.w3.org/1999/xlink" width="22pt" height="22pt" viewBox="0 0 22 22" version="1.1">
<g id="surface22">
<path style=" stroke:none;fill-rule:evenodd;fill:rgb(13.7%,14.9%,16.1%);fill-opacity:1;" d="M 7 3 L 7 5 L 4 5 L 4 19 L 18 19 L 18 5 L 15 5 L 15 3 Z M 5 6 L 6 6 L 6 8 L 16 8 L 16 6 L 17 6 L 17 18 L 5 18 Z M 7 9 L 7 10 L 15 10 L 15 9 Z M 7 12 L 7 13 L 13 13 L 13 12 Z M 7 15 L 7 16 L 10 16 L 10 15 Z M 7 15 "/>
</g>
</svg>
