<?xml version="1.0" encoding="UTF-8"?>
<svg xmlns="http://www.w3.org/2000/svg" xmlns:xlink="http://www.w3.org/1999/xlink" width="22pt" height="22pt" viewBox="0 0 22 22" version="1.1">
<g id="surface247">
<path style="fill:none;stroke-width:0.4;stroke-linecap:butt;stroke-linejoin:round;stroke:rgb(13.7%,14.9%,16.1%);stroke-opacity:1;stroke-miterlimit:10;" d="M 4.65625 8.933594 C 4.640625 8.171875 5.25 7.546875 6.015625 7.546875 L 16.65625 7.546875 C 17.40625 7.546875 18.015625 8.152344 18.015625 8.902344 L 18.015625 14.226562 C 18.015625 14.976562 17.40625 15.582031 16.65625 15.582031 L 6.015625 15.582031 C 5.265625 15.582031 4.65625 14.976562 4.65625 14.226562 L 4.65625 8.902344 " transform="matrix(1,0,0,-1,0,22)"/>
<path style="fill-rule:evenodd;fill:rgb(13.7%,14.9%,16.1%);fill-opacity:1;stroke-width:0.01;stroke-linecap:butt;stroke-linejoin:round;stroke:rgb(13.7%,14.9%,16.1%);stroke-opacity:1;stroke-miterlimit:10;" d="M 6.355469 12.648438 L 8.160156 14.554688 L 9.964844 12.648438 L 9.441406 12.152344 L 8.535156 13.109375 L 8.527344 9.828125 L 7.792969 9.828125 L 7.785156 13.109375 L 6.878906 12.152344 Z M 6.355469 12.648438 " transform="matrix(1,0,0,-1,0,22)"/>
</g>
</svg>
