<?xml version="1.0" encoding="UTF-8"?>
<svg xmlns="http://www.w3.org/2000/svg" xmlns:xlink="http://www.w3.org/1999/xlink" width="22pt" height="22pt" viewBox="0 0 22 22" version="1.1">
<g id="surface192">
<path style="fill:none;stroke-width:1;stroke-linecap:round;stroke-linejoin:round;stroke:rgb(13.7%,14.9%,16.1%);stroke-opacity:1;stroke-miterlimit:10;" d="M 2.5 16.5 L 18.5 16.5 " transform="matrix(1,0,0,-1,0,22)"/>
<path style="fill:none;stroke-width:1;stroke-linecap:round;stroke-linejoin:round;stroke:rgb(13.7%,14.9%,16.1%);stroke-opacity:1;stroke-miterlimit:10;" d="M 2.5 4.5 L 18.5 4.5 " transform="matrix(1,0,0,-1,0,22)"/>
<path style="fill:none;stroke-width:1;stroke-linecap:round;stroke-linejoin:round;stroke:rgb(13.7%,14.9%,16.1%);stroke-opacity:1;stroke-miterlimit:10;" d="M 4.5 19.5 L 4.5 1.5 " transform="matrix(1,0,0,-1,0,22)"/>
<path style="fill:none;stroke-width:1;stroke-linecap:round;stroke-linejoin:round;stroke:rgb(13.7%,14.9%,16.1%);stroke-opacity:1;stroke-miterlimit:10;" d="M 16.5 19.5 L 16.5 1.5 " transform="matrix(1,0,0,-1,0,22)"/>
<path style="fill:none;stroke-width:1;stroke-linecap:round;stroke-linejoin:round;stroke:rgb(13.7%,14.9%,16.1%);stroke-opacity:1;stroke-miterlimit:10;" d="M 2.5 10.5 L 8.5 10.5 " transform="matrix(1,0,0,-1,0,22)"/>
<path style="fill:none;stroke-width:1;stroke-linecap:round;stroke-linejoin:round;stroke:rgb(13.7%,14.9%,16.1%);stroke-opacity:1;stroke-miterlimit:10;" d="M 10.5 19.5 L 10.5 12.5 " transform="matrix(1,0,0,-1,0,22)"/>
<path style="fill:none;stroke-width:1;stroke-linecap:round;stroke-linejoin:round;stroke:rgb(13.7%,14.9%,16.1%);stroke-opacity:1;stroke-miterlimit:10;" d="M 18.5 10.5 L 12.5 10.5 " transform="matrix(1,0,0,-1,0,22)"/>
<path style="fill:none;stroke-width:1;stroke-linecap:round;stroke-linejoin:round;stroke:rgb(13.7%,14.9%,16.1%);stroke-opacity:1;stroke-miterlimit:10;" d="M 10.5 1.5 L 10.5 8.5 " transform="matrix(1,0,0,-1,0,22)"/>
<path style=" stroke:none;fill-rule:evenodd;fill:rgb(85.5%,26.7%,32.5%);fill-opacity:1;" d="M 12.5 11.5 C 12.5 8.832031 8.5 8.832031 8.5 11.5 C 8.5 14.167969 12.5 14.167969 12.5 11.5 Z M 11.5 11.5 C 11.5 10.167969 9.5 10.167969 9.5 11.5 C 9.5 12.832031 11.5 12.832031 11.5 11.5 Z M 11.5 11.5 "/>
</g>
</svg>
