<?xml version="1.0" encoding="UTF-8"?>
<svg xmlns="http://www.w3.org/2000/svg" xmlns:xlink="http://www.w3.org/1999/xlink" width="22pt" height="22pt" viewBox="0 0 22 22" version="1.1">
<g id="surface217">
<path style=" stroke:none;fill-rule:evenodd;fill:rgb(13.7%,14.9%,16.1%);fill-opacity:1;" d="M 3 3 L 3 5 L 4 5 L 4 4 L 5 4 L 5 3 Z M 8 3 L 8 4 L 10 4 L 10 3 Z M 12 3 L 12 4 L 14 4 L 14 3 Z M 17 3 L 17 4 L 18 4 L 18 5 L 19 5 L 19 3 Z M 11 7 L 11 8 L 13.292969 8 L 10 11.292969 L 10.707031 12 L 14 8.707031 L 14 11 L 15 11 L 15 7 Z M 3 8 L 3 10 L 4 10 L 4 8 Z M 18 8 L 18 10 L 19 10 L 19 8 Z M 18 12 L 18 14 L 19 14 L 19 12 Z M 3 13 L 3 19 L 9 19 L 9 13 Z M 4 14 L 8 14 L 8 18 L 4 18 Z M 18 17 L 18 18 L 17 18 L 17 19 L 19 19 L 19 17 Z M 18 17 "/>
</g>
</svg>
