<?xml version="1.0" encoding="UTF-8"?>
<svg xmlns="http://www.w3.org/2000/svg" xmlns:xlink="http://www.w3.org/1999/xlink" width="22pt" height="22pt" viewBox="0 0 22 22" version="1.1">
<g id="surface227">
<path style=" stroke:none;fill-rule:evenodd;fill:rgb(13.7%,14.9%,16.1%);fill-opacity:1;" d="M 3 3 L 3 7 L 4 7 L 4 4 L 7 4 L 7 3 Z M 11 3 L 9 5 L 13 5 Z M 15 3 L 15 4 L 18 4 L 18 7 L 19 7 L 19 3 Z M 6 6 L 6 16 L 16 16 L 16 6 Z M 7 7 L 15 7 L 15 15 L 7 15 Z M 5 9 L 3 11 L 5 13 Z M 17 9 L 17 13 L 19 11 Z M 3 15 L 3 19 L 7 19 L 7 18 L 4 18 L 4 15 Z M 18 15 L 18 18 L 15 18 L 15 19 L 19 19 L 19 15 Z M 9 17 L 11 19 L 13 17 Z M 9 17 "/>
</g>
</svg>
