<?xml version="1.0" encoding="UTF-8"?>
<svg xmlns="http://www.w3.org/2000/svg" xmlns:xlink="http://www.w3.org/1999/xlink" width="22pt" height="22pt" viewBox="0 0 22 22" version="1.1">
<g id="surface212">
<path style=" stroke:none;fill-rule:evenodd;fill:rgb(13.7%,14.9%,16.1%);fill-opacity:1;" d="M 4 4 L 4 20 L 20 20 L 20 4 Z M 5 5 L 7 5 L 7 7 L 5 7 Z M 8 5 L 10 5 L 10 7 L 8 7 Z M 11 5 L 13 5 L 13 7 L 11 7 Z M 14 5 L 16 5 L 16 7 L 14 7 Z M 17 5 L 19 5 L 19 7 L 17 7 Z M 5 8 L 7 8 L 7 10 L 5 10 Z M 8 8 L 10 8 L 10 10 L 8 10 Z M 11 8 L 13 8 L 13 10 L 11 10 Z M 14 8 L 16 8 L 16 10 L 14 10 Z M 17 8 L 19 8 L 19 10 L 17 10 Z M 5 11 L 7 11 L 7 13 L 5 13 Z M 8 11 L 10 11 L 10 13 L 8 13 Z M 11 11 L 13 11 L 13 13 L 11 13 Z M 14 11 L 16 11 L 16 13 L 14 13 Z M 17 11 L 19 11 L 19 13 L 17 13 Z M 5 14 L 7 14 L 7 16 L 5 16 Z M 8 14 L 10 14 L 10 16 L 8 16 Z M 11 14 L 13 14 L 13 16 L 11 16 Z M 14 14 L 16 14 L 16 16 L 14 16 Z M 17 14 L 19 14 L 19 16 L 17 16 Z M 5 17 L 7 17 L 7 19 L 5 19 Z M 8 17 L 10 17 L 10 19 L 8 19 Z M 11 17 L 13 17 L 13 19 L 11 19 Z M 14 17 L 16 17 L 16 19 L 14 19 Z M 17 17 L 19 17 L 19 19 L 17 19 Z M 17 17 "/>
</g>
</svg>
