<?xml version="1.0" encoding="UTF-8"?>
<svg xmlns="http://www.w3.org/2000/svg" xmlns:xlink="http://www.w3.org/1999/xlink" width="22pt" height="22pt" viewBox="0 0 22 22" version="1.1">
<g id="surface107">
<path style="fill:none;stroke-width:1;stroke-linecap:round;stroke-linejoin:round;stroke:rgb(13.7%,14.9%,16.1%);stroke-opacity:1;stroke-miterlimit:10;" d="M 7.011719 9.746094 L 12.058594 7.222656 " transform="matrix(1,0,0,-1,0,22)"/>
<path style="fill:none;stroke-width:1;stroke-linecap:round;stroke-linejoin:round;stroke:rgb(13.7%,14.9%,16.1%);stroke-opacity:1;stroke-miterlimit:10;" d="M 6.277344 12.054688 L 8.5 16.5 L 14.988281 13.257812 " transform="matrix(1,0,0,-1,0,22)"/>
<path style="fill:none;stroke-width:1;stroke-linecap:round;stroke-linejoin:round;stroke:rgb(13.7%,14.9%,16.1%);stroke-opacity:1;stroke-miterlimit:10;" d="M 14.195312 7.890625 L 15.832031 11.164062 " transform="matrix(1,0,0,-1,0,22)"/>
<path style=" stroke:none;fill-rule:evenodd;fill:rgb(11.4%,60%,95.3%);fill-opacity:1;" d="M 14.5 15.5 C 14.5 14.167969 12.5 14.167969 12.5 15.5 C 12.5 16.832031 14.5 16.832031 14.5 15.5 Z M 15.5 15.5 C 15.5 12.832031 11.5 12.832031 11.5 15.5 C 11.5 18.167969 15.5 18.167969 15.5 15.5 Z M 15.5 15.5 "/>
<path style=" stroke:none;fill-rule:evenodd;fill:rgb(11.4%,60%,95.3%);fill-opacity:1;" d="M 17.5 9.5 C 17.5 8.167969 15.5 8.167969 15.5 9.5 C 15.5 10.832031 17.5 10.832031 17.5 9.5 Z M 18.5 9.5 C 18.5 6.832031 14.5 6.832031 14.5 9.5 C 14.5 12.167969 18.5 12.167969 18.5 9.5 Z M 18.5 9.5 "/>
<path style=" stroke:none;fill-rule:evenodd;fill:rgb(11.4%,60%,95.3%);fill-opacity:1;" d="M 6.5 11.5 C 6.5 10.167969 4.5 10.167969 4.5 11.5 C 4.5 12.832031 6.5 12.832031 6.5 11.5 Z M 7.5 11.5 C 7.5 8.832031 3.5 8.832031 3.5 11.5 C 3.5 14.167969 7.5 14.167969 7.5 11.5 Z M 7.5 11.5 "/>
</g>
</svg>
