<?xml version="1.0" encoding="UTF-8"?>
<svg xmlns="http://www.w3.org/2000/svg" xmlns:xlink="http://www.w3.org/1999/xlink" width="22pt" height="22pt" viewBox="0 0 22 22" version="1.1">
<g id="surface112">
<path style="fill:none;stroke-width:1;stroke-linecap:round;stroke-linejoin:round;stroke:rgb(13.7%,14.9%,16.1%);stroke-opacity:1;stroke-miterlimit:10;" d="M 5.597656 11.816406 L 9.5 16.5 L 15.941406 13.28125 " transform="matrix(1,0,0,-1,0,22)"/>
<path style="fill:none;stroke-width:1;stroke-linecap:round;stroke-linejoin:round;stroke:rgb(13.7%,14.9%,16.1%);stroke-opacity:1;stroke-miterlimit:10;" d="M 16.4375 11.226562 L 13.515625 7.714844 " transform="matrix(1,0,0,-1,0,22)"/>
<path style="fill:none;stroke-width:1;stroke-linecap:round;stroke-linejoin:round;stroke:rgb(13.7%,14.9%,16.1%);stroke-opacity:1;stroke-miterlimit:10;" d="M 6.011719 9.746094 L 11.058594 7.222656 " transform="matrix(1,0,0,-1,0,22)"/>
<path style=" stroke:none;fill-rule:evenodd;fill:rgb(11.4%,60%,95.3%);fill-opacity:1;" d="M 13.5 15.5 C 13.5 14.167969 11.5 14.167969 11.5 15.5 C 11.5 16.832031 13.5 16.832031 13.5 15.5 Z M 14.5 15.5 C 14.5 12.832031 10.5 12.832031 10.5 15.5 C 10.5 18.167969 14.5 18.167969 14.5 15.5 Z M 14.5 15.5 "/>
<path style=" stroke:none;fill-rule:evenodd;fill:rgb(11.4%,60%,95.3%);fill-opacity:1;" d="M 18.5 9.5 C 18.5 8.167969 16.5 8.167969 16.5 9.5 C 16.5 10.832031 18.5 10.832031 18.5 9.5 Z M 19.5 9.5 C 19.5 6.832031 15.5 6.832031 15.5 9.5 C 15.5 12.167969 19.5 12.167969 19.5 9.5 Z M 19.5 9.5 "/>
<path style=" stroke:none;fill-rule:evenodd;fill:rgb(11.4%,60%,95.3%);fill-opacity:1;" d="M 5.5 11.5 C 5.5 10.167969 3.5 10.167969 3.5 11.5 C 3.5 12.832031 5.5 12.832031 5.5 11.5 Z M 6.5 11.5 C 6.5 8.832031 2.5 8.832031 2.5 11.5 C 2.5 14.167969 6.5 14.167969 6.5 11.5 Z M 6.5 11.5 "/>
</g>
</svg>
