<?xml version="1.0" encoding="UTF-8"?>
<svg xmlns="http://www.w3.org/2000/svg" xmlns:xlink="http://www.w3.org/1999/xlink" width="22pt" height="22pt" viewBox="0 0 22 22" version="1.1">
<g id="surface147">
<path style="fill:none;stroke-width:1;stroke-linecap:round;stroke-linejoin:round;stroke:rgb(13.7%,14.9%,16.1%);stroke-opacity:1;stroke-miterlimit:10;" d="M 5.789062 6.96875 C 5.050781 9.0625 5.316406 11.378906 6.503906 13.253906 " transform="matrix(1,0,0,-1,0,22)"/>
<path style="fill:none;stroke-width:1;stroke-linecap:round;stroke-linejoin:round;stroke:rgb(13.7%,14.9%,16.1%);stroke-opacity:1;stroke-miterlimit:10;" d="M 8.828125 15.546875 C 10.671875 16.683594 12.933594 16.933594 14.984375 16.226562 " transform="matrix(1,0,0,-1,0,22)"/>
<path style=" stroke:none;fill-rule:evenodd;fill:rgb(11.4%,60%,95.3%);fill-opacity:1;" d="M 8.5 7.5 C 8.5 6.167969 6.5 6.167969 6.5 7.5 C 6.5 8.832031 8.5 8.832031 8.5 7.5 Z M 9.5 7.5 C 9.5 4.832031 5.5 4.832031 5.5 7.5 C 5.5 10.167969 9.5 10.167969 9.5 7.5 Z M 9.5 7.5 "/>
<path style=" stroke:none;fill-rule:evenodd;fill:rgb(11.4%,60%,95.3%);fill-opacity:1;" d="M 7.5 16.5 C 7.5 15.167969 5.5 15.167969 5.5 16.5 C 5.5 17.832031 7.5 17.832031 7.5 16.5 Z M 8.5 16.5 C 8.5 13.832031 4.5 13.832031 4.5 16.5 C 4.5 19.167969 8.5 19.167969 8.5 16.5 Z M 8.5 16.5 "/>
<path style=" stroke:none;fill-rule:evenodd;fill:rgb(11.4%,60%,95.3%);fill-opacity:1;" d="M 17.5 6.5 C 17.5 5.167969 15.5 5.167969 15.5 6.5 C 15.5 7.832031 17.5 7.832031 17.5 6.5 Z M 18.5 6.5 C 18.5 3.832031 14.5 3.832031 14.5 6.5 C 14.5 9.167969 18.5 9.167969 18.5 6.5 Z M 18.5 6.5 "/>
</g>
</svg>
