<?xml version="1.0" encoding="UTF-8"?>
<svg xmlns="http://www.w3.org/2000/svg" xmlns:xlink="http://www.w3.org/1999/xlink" width="22pt" height="22pt" viewBox="0 0 22 22" version="1.1">
<g id="surface97">
<path style=" stroke:none;fill-rule:evenodd;fill:rgb(13.7%,14.9%,16.1%);fill-opacity:1;" d="M 7 5 L 17 5 L 17 15 L 16 15 L 16 6 L 7 6 Z M 7 5 "/>
<path style=" stroke:none;fill-rule:evenodd;fill:rgb(13.7%,14.9%,16.1%);fill-opacity:1;" d="M 5 7 L 6 7 L 6 16 L 15 16 L 15 17 L 5 17 Z M 5 7 "/>
<path style=" stroke:none;fill-rule:evenodd;fill:rgb(11.4%,60%,95.3%);fill-opacity:1;" d="M 6.5 5.5 C 6.5 4.167969 4.5 4.167969 4.5 5.5 C 4.5 6.832031 6.5 6.832031 6.5 5.5 Z M 7.5 5.5 C 7.5 2.832031 3.5 2.832031 3.5 5.5 C 3.5 8.167969 7.5 8.167969 7.5 5.5 Z M 7.5 5.5 "/>
<path style=" stroke:none;fill-rule:evenodd;fill:rgb(11.4%,60%,95.3%);fill-opacity:1;" d="M 17.5 16.5 C 17.5 15.167969 15.5 15.167969 15.5 16.5 C 15.5 17.832031 17.5 17.832031 17.5 16.5 Z M 18.5 16.5 C 18.5 13.832031 14.5 13.832031 14.5 16.5 C 14.5 19.167969 18.5 19.167969 18.5 16.5 Z M 18.5 16.5 "/>
</g>
</svg>
