<?xml version="1.0" encoding="UTF-8"?>
<svg xmlns="http://www.w3.org/2000/svg" xmlns:xlink="http://www.w3.org/1999/xlink" width="22pt" height="22pt" viewBox="0 0 22 22" version="1.1">
<g id="surface52">
<path style=" stroke:none;fill-rule:evenodd;fill:rgb(13.7%,14.9%,16.1%);fill-opacity:1;" d="M 8.851562 14 L 10.5 8.5 L 12 8.5 L 12 3 L 3 3 L 3 14 Z M 4 4 L 4 13 L 9.148438 13 L 10.5 8.5 L 11 8.5 L 11 4 Z M 4 4 "/>
<path style="fill:none;stroke-width:1;stroke-linecap:butt;stroke-linejoin:miter;stroke:rgb(13.7%,14.9%,16.1%);stroke-opacity:1;stroke-miterlimit:10;" d="M 10.699219 13.5 L 7.699219 3.5 L 15.699219 3.5 L 18.699219 13.5 Z M 10.699219 13.5 " transform="matrix(1,0,0,-1,0,22)"/>
<path style=" stroke:none;fill-rule:evenodd;fill:rgb(13.7%,14.9%,16.1%);fill-opacity:1;" d="M 9.90625 8.109375 L 6.183594 9.292969 L 8.070312 4.664062 Z M 9.90625 8.109375 "/>
<path style=" stroke:none;fill-rule:evenodd;fill:rgb(13.7%,14.9%,16.1%);fill-opacity:1;" d="M 4.519531 6.457031 L 7.296875 7.589844 L 7.675781 6.660156 L 4.898438 5.53125 Z M 4.519531 6.457031 "/>
</g>
</svg>
