<?xml version="1.0" encoding="UTF-8"?>
<svg xmlns="http://www.w3.org/2000/svg" xmlns:xlink="http://www.w3.org/1999/xlink" width="22pt" height="22pt" viewBox="0 0 22 22" version="1.1">
<g id="surface57">
<path style="fill:none;stroke-width:1;stroke-linecap:round;stroke-linejoin:round;stroke:rgb(13.7%,14.9%,16.1%);stroke-opacity:1;stroke-dasharray:1,3;stroke-miterlimit:10;" d="M 10.277344 6.445312 L 5.800781 15.402344 " transform="matrix(1,0,0,-1,0,22)"/>
<path style="fill:none;stroke-width:1;stroke-linecap:butt;stroke-linejoin:round;stroke:rgb(13.7%,14.9%,16.1%);stroke-opacity:1;stroke-miterlimit:10;" d="M 11.445312 5.894531 L 16.554688 16.105469 " transform="matrix(1,0,0,-1,0,22)"/>
<path style=" stroke:none;fill-rule:evenodd;fill:rgb(13.7%,14.9%,16.1%);fill-opacity:1;" d="M 8 4 L 8 5 L 12 5 L 12 4 Z M 8 4 "/>
<path style=" stroke:none;fill-rule:evenodd;fill:rgb(13.7%,14.9%,16.1%);fill-opacity:1;" d="M 14 4.398438 L 11 7 L 11 2 Z M 14 4.398438 "/>
<path style=" stroke:none;fill-rule:evenodd;fill:rgb(13.7%,14.9%,16.1%);fill-opacity:1;" d="M 13 17 C 13 14.332031 9 14.332031 9 17 C 9 19.667969 13 19.667969 13 17 Z M 13 17 "/>
<path style=" stroke:none;fill-rule:evenodd;fill:rgb(13.7%,14.9%,16.1%);fill-opacity:1;" d="M 19 5 C 19 2.332031 15 2.332031 15 5 C 15 7.667969 19 7.667969 19 5 Z M 19 5 "/>
<path style=" stroke:none;fill-rule:evenodd;fill:rgb(13.7%,14.9%,16.1%);fill-opacity:1;" d="M 7 5 C 7 2.332031 3 2.332031 3 5 C 3 7.667969 7 7.667969 7 5 Z M 7 5 "/>
</g>
</svg>
