<?xml version="1.0" encoding="UTF-8"?>
<svg xmlns="http://www.w3.org/2000/svg" xmlns:xlink="http://www.w3.org/1999/xlink" width="22pt" height="22pt" viewBox="0 0 22 22" version="1.1">
<g id="surface162">
<path style="fill:none;stroke-width:1;stroke-linecap:round;stroke-linejoin:round;stroke:rgb(13.7%,14.9%,16.1%);stroke-opacity:1;stroke-miterlimit:10;" d="M 5.339844 15.121094 C 7.46875 18.042969 11.46875 18.863281 14.574219 17.019531 " transform="matrix(1,0,0,-1,0,22)"/>
<path style="fill:none;stroke-width:1;stroke-linecap:round;stroke-linejoin:round;stroke:rgb(13.7%,14.9%,16.1%);stroke-opacity:1;stroke-miterlimit:10;" d="M 17.03125 14.550781 C 18.871094 11.429688 18.023438 7.417969 15.078125 5.308594 " transform="matrix(1,0,0,-1,0,22)"/>
<path style="fill:none;stroke-width:1;stroke-linecap:round;stroke-linejoin:round;stroke:rgb(13.7%,14.9%,16.1%);stroke-opacity:1;stroke-miterlimit:10;" d="M 11.890625 4.058594 C 9.769531 3.785156 7.640625 4.496094 6.109375 5.992188 C 4.578125 7.484375 3.816406 9.597656 4.039062 11.726562 " transform="matrix(1,0,0,-1,0,22)"/>
<path style=" stroke:none;fill-rule:evenodd;fill:rgb(11.4%,60%,95.3%);fill-opacity:1;" d="M 14.5 17.5 C 14.5 16.167969 12.5 16.167969 12.5 17.5 C 12.5 18.832031 14.5 18.832031 14.5 17.5 Z M 15.5 17.5 C 15.5 14.832031 11.5 14.832031 11.5 17.5 C 11.5 20.167969 15.5 20.167969 15.5 17.5 Z M 15.5 17.5 "/>
<path style=" stroke:none;fill-rule:evenodd;fill:rgb(11.4%,60%,95.3%);fill-opacity:1;" d="M 17 6 C 17 4.667969 15 4.667969 15 6 C 15 7.332031 17 7.332031 17 6 Z M 18 6 C 18 3.332031 14 3.332031 14 6 C 14 8.667969 18 8.667969 18 6 Z M 18 6 "/>
<path style=" stroke:none;fill-rule:evenodd;fill:rgb(11.4%,60%,95.3%);fill-opacity:1;" d="M 5.5 8.5 C 5.5 7.167969 3.5 7.167969 3.5 8.5 C 3.5 9.832031 5.5 9.832031 5.5 8.5 Z M 6.5 8.5 C 6.5 5.832031 2.5 5.832031 2.5 8.5 C 2.5 11.167969 6.5 11.167969 6.5 8.5 Z M 6.5 8.5 "/>
</g>
</svg>
