<?xml version="1.0" encoding="UTF-8"?>
<svg xmlns="http://www.w3.org/2000/svg" xmlns:xlink="http://www.w3.org/1999/xlink" width="22pt" height="22pt" viewBox="0 0 22 22" version="1.1">
<g id="surface177">
<path style=" stroke:none;fill-rule:evenodd;fill:rgb(85.5%,26.7%,32.5%);fill-opacity:1;" d="M 12.5 10.5 C 12.5 7.832031 8.5 7.832031 8.5 10.5 C 8.5 13.167969 12.5 13.167969 12.5 10.5 Z M 11.5 10.5 C 11.5 9.167969 9.5 9.167969 9.5 10.5 C 9.5 11.832031 11.5 11.832031 11.5 10.5 Z M 11.5 10.5 "/>
<path style=" stroke:none;fill-rule:evenodd;fill:rgb(13.7%,14.9%,16.1%);fill-opacity:1;" d="M 18.5 10.5 C 18.5 6.082031 14.917969 2.5 10.5 2.5 C 6.082031 2.5 2.5 6.082031 2.5 10.5 C 2.5 14.917969 6.082031 18.5 10.5 18.5 C 14.917969 18.5 18.5 14.917969 18.5 10.5 Z M 17.5 10.5 C 17.5 6.632812 14.367188 3.5 10.5 3.5 C 6.632812 3.5 3.5 6.632812 3.5 10.5 C 3.5 14.367188 6.632812 17.5 10.5 17.5 C 14.367188 17.5 17.5 14.367188 17.5 10.5 Z M 17.5 10.5 "/>
</g>
</svg>
