<?xml version="1.0" encoding="UTF-8"?>
<svg xmlns="http://www.w3.org/2000/svg" xmlns:xlink="http://www.w3.org/1999/xlink" width="22pt" height="22pt" viewBox="0 0 22 22" version="1.1">
<g id="surface252">
<path style=" stroke:none;fill-rule:evenodd;fill:rgb(85.5%,26.7%,32.5%);fill-opacity:1;" d="M 11 3 C 15.433594 3 19 6.566406 19 11 C 19 12.441406 18.617188 13.789062 17.953125 14.953125 L 17.21875 14.21875 C 17.730469 13.222656 18 12.121094 18 11 C 18 7.121094 14.878906 4 11 4 C 9.878906 4 8.777344 4.269531 7.78125 4.78125 L 7.046875 4.046875 C 8.25 3.359375 9.613281 3 11 3 M 4.046875 7.046875 L 4.78125 7.78125 C 4.269531 8.777344 4 9.878906 4 11 C 4 14.878906 7.121094 18 11 18 C 12.121094 18 13.222656 17.730469 14.21875 17.21875 L 14.953125 17.953125 C 13.75 18.640625 12.386719 19 11 19 C 6.566406 19 3 15.433594 3 11 C 3 9.558594 3.382812 8.210938 4.046875 7.046875 "/>
<path style=" stroke:none;fill-rule:evenodd;fill:rgb(85.5%,26.7%,32.5%);fill-opacity:1;" d="M 7.5 9.996094 L 14.5 9.996094 L 14.5 11.996094 L 7.5 11.996094 Z M 7.5 9.996094 "/>
</g>
</svg>
