<?xml version="1.0" encoding="UTF-8"?>
<svg xmlns="http://www.w3.org/2000/svg" xmlns:xlink="http://www.w3.org/1999/xlink" width="22pt" height="22pt" viewBox="0 0 22 22" version="1.1">
<g id="surface222">
<path style=" stroke:none;fill-rule:evenodd;fill:rgb(13.7%,14.9%,16.1%);fill-opacity:1;" d="M 3 3 L 3 10 L 4 10 L 4 4 L 18 4 L 18 18 L 12 18 L 12 19 L 19 19 L 19 3 Z M 14.292969 7 L 11 10.292969 L 11 8 L 10 8 L 10 12 L 14 12 L 14 11 L 11.707031 11 L 15 7.707031 Z M 3 13 L 3 15 L 4 15 L 4 14 L 5 14 L 5 13 Z M 7 13 L 7 14 L 8 14 L 8 15 L 9 15 L 9 13 Z M 3 17 L 3 19 L 5 19 L 5 18 L 4 18 L 4 17 Z M 8 17 L 8 18 L 7 18 L 7 19 L 9 19 L 9 17 Z M 8 17 "/>
</g>
</svg>
